<svg width="1343" height="1343" viewBox="0 0 1343 1343" fill="none" xmlns="http://www.w3.org/2000/svg">
<path d="M996.722 982.804L689.032 606.423L620.34 675.114L996.722 982.804Z" fill="url(#paint0_linear_1402_24)"/>
<path d="M1008.32 338.876L700.629 715.257L631.938 646.566L1008.32 338.876Z" fill="url(#paint1_linear_1402_24)"/>
<path d="M338.876 1008.32L646.566 631.936L715.257 700.628L338.876 1008.32Z" fill="url(#paint2_linear_1402_24)"/>
<path d="M324.958 338.876L632.648 715.257L701.339 646.566L324.958 338.876Z" fill="url(#paint3_linear_1402_24)"/>
<path d="M1343 672.5L671.75 580.268V764.732L1343 672.5Z" fill="url(#paint4_linear_1402_24)"/>
<path d="M0 672.5L671.25 580.268V764.732L0 672.5Z" fill="url(#paint5_linear_1402_24)"/>
<path d="M672.5 0L764.732 671.25H580.268L672.5 0Z" fill="url(#paint6_linear_1402_24)"/>
<path d="M672.5 1343L764.732 671.75H580.268L672.5 1343Z" fill="url(#paint7_linear_1402_24)"/>
<defs>
<linearGradient id="paint0_linear_1402_24" x1="996.722" y1="982.804" x2="540.674" y2="526.756" gradientUnits="userSpaceOnUse">
<stop stop-color="white" stop-opacity="0"/>
<stop offset="0.619792" stop-color="white"/>
</linearGradient>
<linearGradient id="paint1_linear_1402_24" x1="1008.32" y1="338.876" x2="552.272" y2="794.923" gradientUnits="userSpaceOnUse">
<stop stop-color="white" stop-opacity="0"/>
<stop offset="0.619792" stop-color="white"/>
</linearGradient>
<linearGradient id="paint2_linear_1402_24" x1="338.876" y1="1008.32" x2="794.923" y2="552.27" gradientUnits="userSpaceOnUse">
<stop stop-color="white" stop-opacity="0"/>
<stop offset="0.619792" stop-color="white"/>
</linearGradient>
<linearGradient id="paint3_linear_1402_24" x1="324.958" y1="338.876" x2="781.005" y2="794.923" gradientUnits="userSpaceOnUse">
<stop stop-color="white" stop-opacity="0"/>
<stop offset="0.619792" stop-color="white"/>
</linearGradient>
<linearGradient id="paint4_linear_1402_24" x1="1343" y1="672.5" x2="448" y2="672.5" gradientUnits="userSpaceOnUse">
<stop stop-color="white" stop-opacity="0"/>
<stop offset="0.0001" stop-color="white" stop-opacity="0.468135"/>
<stop offset="0.75" stop-color="white"/>
</linearGradient>
<linearGradient id="paint5_linear_1402_24" x1="0" y1="672.5" x2="895" y2="672.5" gradientUnits="userSpaceOnUse">
<stop stop-color="white" stop-opacity="0"/>
<stop offset="0.0001" stop-color="white" stop-opacity="0.468135"/>
<stop offset="0.75" stop-color="white"/>
</linearGradient>
<linearGradient id="paint6_linear_1402_24" x1="672.5" y1="0" x2="672.5" y2="895" gradientUnits="userSpaceOnUse">
<stop stop-color="white" stop-opacity="0"/>
<stop offset="0.0001" stop-color="white" stop-opacity="0.468135"/>
<stop offset="0.75" stop-color="#FEFEFE"/>
</linearGradient>
<linearGradient id="paint7_linear_1402_24" x1="672.5" y1="1343" x2="672.5" y2="448" gradientUnits="userSpaceOnUse">
<stop stop-color="white" stop-opacity="0"/>
<stop offset="0.0001" stop-color="white" stop-opacity="0.468135"/>
<stop offset="0.75" stop-color="#FEFEFE"/>
</linearGradient>
</defs>
</svg>
